<svg id="svg2" xmlns="http://www.w3.org/2000/svg" viewBox="0 0 392.81 472.61">
<defs><style>.cls-1{fill:rgb(100, 255, 218);}</style></defs><title>white</title><g id="g12"><path id="path16" class="cls-1" d="M539,337.81C538.9,425.23,482.4,484,398.4,484H303.56v92.32c-27.27-6.09-70.33-25.8-70.33-89.36,0-36.05.16-141.86.18-149.09V193.47h165c84,0,140.5,57.86,140.58,144ZM398.4,149.93H189.87V337.8s-.18,111.84-.18,149.12c0,107.29,88.72,135.62,135.62,135.62h21.77V527.48H398.4c108.19,0,183.87-77.82,184.11-189.34v-1c-.24-110.22-75.92-187.17-184.11-187.17" transform="translate(-189.7 -149.93)"/></g></svg>
